<svg xmlns="http://www.w3.org/2000/svg" viewBox="0 0 512 512">
  <defs>
    <radialGradient id="halo" cx="50%" cy="42%" r="58%">
      <stop offset="0" stop-color="#7cf5df" stop-opacity=".7"/>
      <stop offset="1" stop-color="#0b8f89" stop-opacity="0"/>
    </radialGradient>
    <linearGradient id="shell" x1=".18" y1=".05" x2=".82" y2=".95">
      <stop stop-color="#8ef8e6"/>
      <stop offset=".42" stop-color="#22b9ae"/>
      <stop offset="1" stop-color="#08746f"/>
    </linearGradient>
    <linearGradient id="face" x1="0" y1="0" x2="1" y2="1">
      <stop stop-color="#143f48"/>
      <stop offset="1" stop-color="#071e29"/>
    </linearGradient>
    <filter id="glow" x="-60%" y="-60%" width="220%" height="220%">
      <feGaussianBlur stdDeviation="8" result="b"/>
      <feMerge><feMergeNode in="b"/><feMergeNode in="SourceGraphic"/></feMerge>
    </filter>
  </defs>
  <circle cx="256" cy="256" r="226" fill="url(#halo)"/>
  <path d="M256 58c92 0 168 55 168 138v82c0 91-65 156-168 190C153 434 88 369 88 278v-82C88 113 164 58 256 58Z" fill="#0a4f54" opacity=".32"/>
  <path d="M256 72c84 0 151 49 151 124v75c0 80-57 138-151 170-94-32-151-90-151-170v-75c0-75 67-124 151-124Z" fill="url(#shell)" stroke="#c7fff6" stroke-width="8"/>
  <path d="M145 205c0-47 39-86 86-86h50c47 0 86 39 86 86v78c0 47-39 86-86 86h-50c-47 0-86-39-86-86Z" fill="url(#face)" stroke="#b8fff2" stroke-width="7"/>
  <path d="M132 246 91 266v50l54 22M380 246l41 20v50l-54 22" fill="none" stroke="#69ead7" stroke-width="16" stroke-linecap="round" stroke-linejoin="round"/>
  <path d="M185 245c18-16 39-16 56 0M271 245c18-16 39-16 56 0" fill="none" stroke="#bafff4" stroke-width="12" stroke-linecap="round" filter="url(#glow)"/>
  <path d="M191 305c22 20 44-20 66 0s44-20 66 0" fill="none" stroke="#51e5d2" stroke-width="12" stroke-linecap="round"/>
  <path d="M208 105c13-25 31-38 48-38s35 13 48 38" fill="none" stroke="#c7fff6" stroke-width="8" stroke-linecap="round"/>
  <circle cx="256" cy="68" r="13" fill="#e8fffb" stroke="#15a49d" stroke-width="7"/>
  <path d="M204 390h104l-13 42-39 14-39-14Z" fill="#0d7774" stroke="#9bf8e9" stroke-width="6"/>
  <text x="256" y="422" fill="#d8fff8" font-family="Arial, sans-serif" font-size="24" font-weight="700" text-anchor="middle">AI</text>
</svg>
