<svg xmlns="http://www.w3.org/2000/svg" viewBox="0 0 512 512">
  <defs>
    <radialGradient id="halo" cx="50%" cy="46%" r="59%">
      <stop offset="0" stop-color="#ffb0a5" stop-opacity=".78"/>
      <stop offset="1" stop-color="#c83d38" stop-opacity="0"/>
    </radialGradient>
    <linearGradient id="shell" x1=".16" y1=".04" x2=".84" y2=".96">
      <stop stop-color="#ffb1a4"/>
      <stop offset=".42" stop-color="#ef665c"/>
      <stop offset="1" stop-color="#a82c2e"/>
    </linearGradient>
    <linearGradient id="face" x1="0" y1="0" x2="1" y2="1">
      <stop stop-color="#572026"/>
      <stop offset="1" stop-color="#210b13"/>
    </linearGradient>
    <filter id="glow" x="-60%" y="-60%" width="220%" height="220%">
      <feGaussianBlur stdDeviation="8" result="b"/>
      <feMerge><feMergeNode in="b"/><feMergeNode in="SourceGraphic"/></feMerge>
    </filter>
  </defs>
  <circle cx="256" cy="256" r="226" fill="url(#halo)"/>
  <path d="m256 45 174 96-28 207-146 122-146-122-28-207Z" fill="#6f1d25" opacity=".28"/>
  <path d="m256 61 156 88-25 188-131 109-131-109-25-188Z" fill="url(#shell)" stroke="#ffd2cb" stroke-width="8"/>
  <path d="m149 192 107-77 107 77-21 156-86 67-86-67Z" fill="url(#face)" stroke="#ffc1b8" stroke-width="7"/>
  <path d="m169 222 71-25M272 197l72 25" fill="none" stroke="#ff7c70" stroke-width="13" stroke-linecap="round"/>
  <path d="M177 260c42-44 116-44 158 0-42 44-116 44-158 0Z" fill="#ff8c80" stroke="#ffd2cb" stroke-width="7"/>
  <circle cx="256" cy="260" r="34" fill="#281019" stroke="#fff1ed" stroke-width="8"/>
  <circle cx="256" cy="260" r="12" fill="#fff7f4" filter="url(#glow)"/>
  <path d="M217 330c27-16 55-16 82 0" fill="none" stroke="#ff9186" stroke-width="11" stroke-linecap="round"/>
  <path d="M256 61v-27M226 42h60" fill="none" stroke="#ffd6d0" stroke-width="8" stroke-linecap="round"/>
  <path d="M205 389h102l-13 42-38 14-38-14Z" fill="#a72c30" stroke="#ffc0b8" stroke-width="6"/>
  <text x="256" y="422" fill="#fff0ed" font-family="Arial, sans-serif" font-size="24" font-weight="700" text-anchor="middle">AI</text>
</svg>
